<svg xmlns="http://www.w3.org/2000/svg" xmlns:xlink="http://www.w3.org/1999/xlink" viewBox="0 0 128 128">
  <g style="isolation: isolate">
    <g>
      <rect width="128" height="128" rx="30" />
      <g>
        <path d="M13.22,60.26V29.18h8.47V41.26H33V29.18h8.49V60.26H33V47.61H21.69V60.26Z" style="fill: #1ce783" />
        <path d="M48.29,60.26V29.18h8.56V60.26Z" style="fill: #1ce783" />
        <path
          d="M63.68,60.26V29.18h6.48a52.17,52.17,0,0,1,10.24.68,14.73,14.73,0,0,1,5.28,2.27,13.23,13.23,0,0,1,4.48,5.28,16.86,16.86,0,0,1,1.53,7.33,16.9,16.9,0,0,1-1.53,7.34,13.27,13.27,0,0,1-4.48,5.27,14.47,14.47,0,0,1-5.14,2.24,43.06,43.06,0,0,1-9,.67h-7.9Zm8.39-7h1.42c3.33,0,5.76-.69,7.28-2s2.3-3.54,2.3-6.51-.77-5.15-2.3-6.54-4-2.08-7.28-2.08H72.07Z"
          style="fill: #1ce783" />
        <path d="M97,60.26V29.18h19V36H105.25v5.4h10.17v6.66H105.25V53.3H116v7Z" style="fill: #1ce783" />
      </g>
      <g>
        <g>
          <path
            d="M73.76,86.54c1.68.85,3.83,1.72,3.83,1.72l18,8.54s-2.42,5.26-2.75,5.94c-1.19,2.36-3.77,7.76-5,10.28-1.83-1-14.39-9.35-22.52-13.46-.89,5.15-2.11,12.8-3,18.07C52.77,104,40,86.39,30.59,73c0-.06-5.16-7.07-5.16-7.07.65.14,62.5,9.87,63.06,10"
            style="fill: #fff" />
        </g>
        <path
          d="M62.74,94.55l-2.55,14.7L33.12,70.75l.11-.17,46,7.8,0,.19-11.86,8.8,4.5,2.27Q80.2,93.84,88.53,98c.57.28.71.52.38,1.16-1.12,2.25-2.17,4.54-3.3,6.94Z"
          style="fill: #020202" />
      </g>
    </g>
  </g>
</svg>