<svg xmlns="http://www.w3.org/2000/svg" viewBox="0 0 231.71 27.41">
  <path
    d="M5.4,23.8c3.47-6.28,2.69-13.61,5.79-20.09L6.67,1.48c3.33,5.66,4,13.57,5.46,19.89.19.82,4.49,3.24,4.68,2.5a143.52,143.52,0,0,1,6.27-19.2L18.4,2.17c2.81,5,2.14,11.9,2.22,17.48,0,1,4.57,3,4.68,2.5,1.17-5.69,2.49-11.2,5.35-16.31L26,3.34a88.36,88.36,0,0,1,3.31,16.5c.11,1,4.59,3,4.68,2.5a119.68,119.68,0,0,1,4.23-16.9L33.51,2.93c2.24,6.07,3.18,12.35,4,18.74.12.94,3.86,3.22,4.67,2.5,1.58-1.39,1.87-4.89,2.41-6.83L47.19,8l-4.68-2.5A93.78,93.78,0,0,1,44.75,23c0,.88,4.39,3.24,4.68,2.5Q53.17,16,56.75,6.45L52.07,4a74.46,74.46,0,0,1,1,14.39c0,1.14,4.63,2.91,4.68,2.5.76-5.57,1.66-11,4-16.13l-4.68-2.5a59,59,0,0,1,1.06,13.34c0,.86,4.32,3.26,4.68,2.5a21.31,21.31,0,0,0,2.13-8.46c.07-1.48-4.66-2.9-4.67-2.7a21.24,21.24,0,0,1-2.14,8.46l4.68,2.5A58.4,58.4,0,0,0,61.74,4.52c-.17-.77-4.28-3.37-4.68-2.51C54.7,7.16,53.8,12.57,53,18.14l4.68,2.5a75.38,75.38,0,0,0-1-14.39c-.15-.8-4.37-3.31-4.68-2.5q-3.57,9.56-7.32,19.06l4.68,2.5A92.84,92.84,0,0,0,47.19,7.82C47,7,42.72,4.56,42.51,5.31l-2.58,9.33c-.58,2.09-.76,5.37-2.41,6.83L42.2,24c-.83-6.38-1.77-12.66-4-18.73-.25-.68-4.38-3.39-4.67-2.5a119.68,119.68,0,0,0-4.23,16.9L34,22.14a89.15,89.15,0,0,0-3.3-16.5c-.22-.73-4.17-3.42-4.68-2.5-2.87,5.11-4.18,10.62-5.36,16.31L25.3,22c-.08-5.59.6-12.46-2.22-17.49C22.78,3.92,18.82,1,18.41,2a142.14,142.14,0,0,0-6.28,19.2l4.68,2.5C15.25,17,14.55,9.21,11,3.24,10.71,2.69,6.94.11,6.51,1,3.41,7.49,4.2,14.82.73,21.1.26,22,5,24.62,5.4,23.8Z"
    transform="translate(-0.7 1.21)" style="fill: #ecea65" />
  <path
    d="M61,23.2q1.88-7.56,4.14-15L60.45,5.7l3.33,15.52c.17.8,4.42,3.3,4.68,2.5Q71.9,13.25,75.62,2.87L70.94.37Q72.6,11.1,74,21.86c.12.9,4.5,3.19,4.68,2.5A204.57,204.57,0,0,1,85.23,4.19l-4.68-2.5c1.86,6,2.15,12,2.29,18.24,0,1,4.56,3.06,4.68,2.51C88.9,16.15,90.39,10,93,4.07L88.34,1.56c2.38,6.9.78,14.85,2.68,22,.21.81,4.52,3.23,4.68,2.5a158,158,0,0,1,6.16-21l-4.68-2.5c1.89,6,1.25,12.23,1.58,18.45.06,1,4.56,3.08,4.68,2.51a151.57,151.57,0,0,1,5.25-18.37L104,2.67c1.46,5.11.52,10.45,1.89,15.58.21.81,4.52,3.23,4.68,2.5,1.1-5,1.5-12.13,4.31-16.47l-4.68-2.5c1.88,6.92.23,14.09,1.85,21,.24,1,4.66,2.93,4.68,2.51.32-6.1-.39-13.47,1.83-19.23L113.9,3.6q1.6,7.23,3,14.5c.17.85,4.49,3.23,4.68,2.5a18.52,18.52,0,0,0,.63-5.12c0-1.2-4.68-3.07-4.68-2.31a12.18,12.18,0,0,1-.63,4.73l4.68,2.5q-1.4-7.26-3-14.5c-.17-.78-4.36-3.34-4.68-2.5-2.22,5.75-1.51,13.14-1.82,19.23l4.68,2.5c-1.63-6.95,0-14.13-1.86-21-.2-.77-4.09-3.41-4.67-2.51C107.41,5.92,107,13,105.91,18.05l4.68,2.5c-1.36-5.13-.43-10.46-1.89-15.57-.21-.74-4.38-3.36-4.68-2.5a149.78,149.78,0,0,0-5.25,18.37l4.68,2.5c-.34-6.23.31-12.42-1.59-18.46-.22-.71-4.35-3.38-4.68-2.5a161.1,161.1,0,0,0-6.16,21l4.68,2.5c-1.9-7.16-.3-15.11-2.68-22-.24-.69-4.26-3.43-4.68-2.5-2.63,5.89-4.11,12.08-5.5,18.37l4.68,2.5C87.38,16,87.09,10,85.23,4,85,3.28,80.89.61,80.55,1.49A204.51,204.51,0,0,0,74,21.66l4.67,2.51q-1.36-10.77-3-21.49c-.13-.84-4.4-3.29-4.68-2.51Q67.22,10.55,63.78,21l4.68,2.5L65.13,8c-.17-.81-4.44-3.28-4.68-2.5q-2.27,7.44-4.14,15C56,21.75,60.86,23.71,61,23.2Z"
    transform="translate(-0.7 1.21)" style="fill: #71bf4b" />
  <path
    d="M121.22,23.69A123.63,123.63,0,0,1,126,5.41l-4.68-2.5C123.17,9.29,122.72,16,124,22.46c.17.95,4.59,3.07,4.67,2.5,1.09-7.15,2.58-14.1,6-20.51L130,1.94c2.61,5.75,2.05,13.23,2.8,19.43.11.92,4.51,3.16,4.68,2.5a119.35,119.35,0,0,1,5.88-18.58l-4.52-2.23c2.93,4.51,2.15,12.25,1.67,17.28-.13,1.39,4.63,3,4.68,2.7a65.41,65.41,0,0,1,2.9-11.33c1.05-3.39,1.8-7,3.77-10L147.15-.81c2.49,5.69,1.23,12,3.28,17.84.26.74,4.54,3.26,4.68,2.51,1-5.26,2-11,5.29-15.37l-4.52-2.23c1.53,2.23.83,8.15.77,10.61-.08,3.07-.32,6.12-.64,9.17-.15,1.41,4.64,3,4.68,2.7.62-5.45,1.42-10.73,3.67-15.77l-4.68-2.51c2.59,4.82,2.29,11.09,2.45,16.41,0,1.07,4.59,3,4.68,2.5,1.21-7,2-14.53,5-21l-4.68-2.51c2.12,5.22,1.27,12,1.23,17.54,0,1.09,4.59,3,4.67,2.5l.38-2.17c.24-1.35-4.6-3.11-4.67-2.7l-.38,2.17L173,21.38c0-5.53.89-12.33-1.22-17.54-.27-.65-4.25-3.46-4.68-2.5-3,6.48-3.8,14-5,21l4.68,2.5c-.16-5.32.14-11.59-2.45-16.4-.31-.57-4.23-3.52-4.68-2.5-2.24,5-3.05,10.33-3.67,15.77l4.68,2.7a110.53,110.53,0,0,0,.66-11.21c0-3,.63-7-1.1-9.5-.42-.61-3.84-3.13-4.52-2.24-3.31,4.35-4.31,10.11-5.3,15.37l4.68,2.5c-2-5.82-.79-12.15-3.28-17.84-.3-.69-4.05-3.47-4.68-2.5-2,3-2.72,6.64-3.77,10a66.33,66.33,0,0,0-2.9,11.33l4.68,2.7c.53-5.62,1.21-13.29-2-18.22-.33-.51-4.12-3.14-4.52-2.23a119.35,119.35,0,0,0-5.88,18.58l4.68,2.5c-.75-6.2-.18-13.67-2.8-19.42-.3-.65-4.15-3.49-4.68-2.5-3.45,6.41-4.94,13.36-6,20.51l4.68,2.5c-1.23-6.5-.78-13.16-2.66-19.55-.22-.73-4.39-3.35-4.68-2.5A122.4,122.4,0,0,0,116.55,21c-.24,1.34,4.6,3.11,4.67,2.7Z"
    transform="translate(-0.7 1.21)" style="fill: #4068b2" />
  <path
    d="M173,25.25a56.41,56.41,0,0,1,4.63-21.46l-4.52-2.23c3.21,5.48,2.42,13.25,2.39,19.34,0,1.11,4.61,3,4.68,2.51,1-6.14,2.09-12.12,4.72-17.79l-4.68-2.5c2.19,6.35.94,13.13,2.83,19.54.24.8,4.55,3.21,4.68,2.5,1.28-6.95,2.84-13.66,6.86-19.59L190,3.06c2.8,5.67,2.19,11.89,3.1,18,.15,1,4.6,3,4.68,2.5,1-7,1.59-14.81,5.67-20.75L199.18.89c2.23,2,1.62,8.43,1.63,11,0,3.28-.35,6.59,1.12,9.6.3.62,4.56,3.31,4.68,2.51.89-6,1.83-13.75,6-18.42L208,3.11c3.06,6.14,2.23,13,3.86,19.55.26,1.05,4.67,2.86,4.68,2.5.08-5.85.39-16,4.65-20.52l-4.67-2.5c2.32,5.93,1.74,12.22,2.54,18.43.14,1.13,4.65,2.88,4.68,2.51a78.08,78.08,0,0,1,3.73-19l-4.22-1.9c3.61,3.3,3.13,12.83,3.53,17.34.1,1.17,4.68,3.09,4.68,2.31a39.38,39.38,0,0,1,1-8.67c.28-1.29-4.57-3.18-4.68-2.7a41.2,41.2,0,0,0-1,9.06l4.68,2.31c-.49-5.6,0-14.45-4.44-18.54-.35-.32-3.94-2.76-4.23-1.91a78.08,78.08,0,0,0-3.73,19l4.68,2.5c-.8-6.22-.22-12.5-2.54-18.44-.32-.81-3.86-3.38-4.68-2.5-4.25,4.51-4.57,14.67-4.66,20.52L216.51,25c-1.63-6.52-.8-13.42-3.86-19.56-.37-.75-3.84-3.43-4.67-2.5-4.22,4.68-5.16,12.42-6,18.42l4.68,2.5C203.54,17.53,208.5,7.07,203,2c-.48-.44-3.62-2.79-4.23-1.91C194.65,6,194,13.89,193.05,20.85l4.68,2.5c-.91-6.1-.3-12.31-3.1-18-.33-.67-4-3.49-4.68-2.5-4,5.92-5.58,12.65-6.85,19.59L187.77,25c-1.89-6.41-.63-13.2-2.83-19.54-.23-.7-4.24-3.43-4.67-2.51-2.64,5.67-3.75,11.66-4.73,17.79l4.68,2.5c0-6.53.72-14-2.71-19.88C177.2,2.79,173.37.2,173,1.09a56.6,56.6,0,0,0-4.63,21.46c0,1.5,4.68,2.85,4.68,2.7Z"
    transform="translate(-0.7 1.21)" style="fill: #231f20" />
</svg>