<svg xmlns="http://www.w3.org/2000/svg" viewBox="0 0 231.69 38.12" style="opacity: 0.8; backdrop-filter: blur(15px)">
  <path
    d="M5.4,27.72C9,18.41,8,8.23,11.19-1.24L6.51-3.75c3.71,8.87,4.09,19.64,5.62,29.06.15,1,4.58,3.09,4.68,2.51A270.13,270.13,0,0,1,23.08.14L18.4-2.36c3.08,7.58,2.14,17.18,2.22,25.2,0,1.12,4.62,2.93,4.68,2.5,1.14-8,2.35-16,5.35-23.51L26-.67a173.07,173.07,0,0,1,3.31,23.78c.08,1.11,4.63,2.92,4.68,2.5A233.58,233.58,0,0,1,38.19,1.25l-4.68-2.5c2.31,8.85,3.19,17.91,4,27,.07.85,4,3.31,4.67,2.5,2-2.53,2-7.52,2.55-10.58L47.19,5l-4.68-2.5a186.94,186.94,0,0,1,2.24,25.22c0,1,4.51,3.13,4.68,2.5q3.75-13.71,7.32-27.47L52.07.2A149.87,149.87,0,0,1,53,21c0,1.2,4.65,2.83,4.68,2.5.75-7.87,1.58-15.69,4-23.25L57.06-2.3a116.53,116.53,0,0,1,1.06,19.22c0,.94,4.45,3.19,4.68,2.51A39.84,39.84,0,0,0,64.93,7.24c0-1.5-4.67-2.86-4.67-2.7a39.86,39.86,0,0,1-2.14,12.19l4.68,2.5A116.47,116.47,0,0,0,61.74,0c-.13-.85-4.43-3.27-4.68-2.51-2.45,7.56-3.28,15.38-4,23.25l4.68,2.5a149.66,149.66,0,0,0-1-20.74c-.12-.9-4.5-3.18-4.68-2.5Q48.5,13.76,44.75,27.48L49.43,30A186.8,186.8,0,0,0,47.19,4.77c-.15-.94-4.56-3.11-4.68-2.51L40.07,15c-.57,3-.65,8.16-2.55,10.58l4.68,2.51c-.81-9.1-1.7-18.15-4-27-.21-.81-4.51-3.23-4.67-2.5a231,231,0,0,0-4.23,24.36L34,25.41a173.27,173.27,0,0,0-3.3-23.78C30.49.85,26.31-1.71,26-.87c-3,7.55-4.22,15.51-5.36,23.51l4.68,2.51c-.08-8,.86-17.64-2.22-25.21-.26-.65-4.43-3.38-4.67-2.5a267.56,267.56,0,0,0-6.28,27.68l4.68,2.5c-1.53-9.43-1.91-20.2-5.62-29.06-.26-.64-4.36-3.43-4.68-2.5C3.29,5.53,4.37,15.71.73,25c-.42,1.06,4.41,3.39,4.67,2.7Z"
    transform="translate(-0.7 7.03)" style="fill: #ecea65" />
  <path
    d="M61,26.85Q62.85,16,65.13,5.23l-4.68-2.5L63.78,25.1c.13.92,4.53,3.15,4.68,2.51q3.42-15.07,7.16-30.06l-4.68-2.5q1.68,15.48,3,31c.09,1,4.58,3,4.68,2.5Q81.39,13.86,85.23-.55L80.55-3c1.92,8.66,2.16,17.46,2.29,26.3,0,1.1,4.61,2.95,4.68,2.5C88.88,16.82,90.31,7.92,93-.73l-4.68-2.5c1.33,4.85,1,10.05,1.09,15A102.51,102.51,0,0,0,91,28.49c.18,1,4.59,3.07,4.68,2.5A302.21,302.21,0,0,1,101.86.75l-4.68-2.5c2,8.76,1.22,17.7,1.58,26.6,0,1.09,4.61,3,4.68,2.5q2-13.36,5.25-26.48L104-1.63c1.57,7.41.41,15,1.89,22.45.18.94,4.59,3.08,4.68,2.5q1-6.42,2-12.84c.57-3.56.64-7.68,2.32-10.9l-4.68-2.5c2,10,.13,20.28,1.85,30.34.2,1.12,4.67,2.83,4.68,2.5.32-8.89-.59-19.11,1.83-27.72L113.9-.3q1.6,10.44,3,20.91c.13,1,4.56,3.09,4.68,2.5a34.47,34.47,0,0,0,.63-7.3c0-1.21-4.69-3.06-4.68-2.31a31.08,31.08,0,0,1-.63,6.91l4.68,2.5q-1.4-10.47-3-20.91c-.14-.87-4.48-3.21-4.68-2.5-2.42,8.61-1.5,18.83-1.82,27.72l4.68,2.5c-1.73-10,.13-20.31-1.86-30.33-.15-.78-4.22-3.37-4.67-2.51-1.66,3.18-1.77,7.39-2.32,10.9q-1,6.42-2,12.84l4.68,2.51c-1.47-7.43-.31-15-1.89-22.45-.18-.85-4.5-3.23-4.68-2.51q-3.26,13.13-5.25,26.48l4.68,2.51c-.37-8.9.39-17.85-1.59-26.61-.19-.82-4.49-3.24-4.68-2.5A305,305,0,0,0,91,28.29l4.68,2.5a103.62,103.62,0,0,1-1.59-16.67c-.13-5,.25-10.19-1.09-15-.2-.76-4.42-3.33-4.68-2.51-2.71,8.65-4.13,17.55-5.5,26.48l4.68,2.5c-.13-8.84-.36-17.63-2.29-26.3-.18-.82-4.48-3.24-4.68-2.5Q76.7,11.17,74,25.83l4.67,2.5q-1.36-15.49-3-31c-.1-.94-4.52-3.15-4.68-2.51q-3.73,15-7.16,30.06l4.68,2.5L65.13,5C65,4.1,60.59,1.9,60.45,2.53Q58.17,13.3,56.31,24.15c-.23,1.35,4.61,3.1,4.68,2.7Z"
    transform="translate(-0.7 7.03)" style="fill: #71bf4b" />
  <path
    d="M121.22,27.55A237.88,237.88,0,0,1,126,1.21l-4.68-2.5c2,9.28,1.38,18.81,2.67,28.17.14,1.07,4.63,2.95,4.67,2.51,1-10,2.44-20.07,6-29.57L130-2.68c2.9,8.65,2,19,2.8,28,.09,1,4.59,3,4.68,2.5,1.58-9,3.2-18,5.88-26.78l-4.68-2.51c3.43,7.07,2.35,17.88,1.83,25.39-.1,1.44,4.65,3,4.68,2.7a129.48,129.48,0,0,1,3-16.68c1-4.7,1.64-9.71,3.7-14.09l-4.68-2.5c2.64,8.36,1.13,17.26,3.28,25.72.23.9,4.6,3.09,4.68,2.5.94-7.36,1.71-15.52,5.29-22.14l-4.68-2.5c1.74,3.66,1,9.12.95,13.12,0,5.3-.26,10.58-.66,15.86-.11,1.45,4.66,3,4.68,2.7.6-7.69,1.32-15.35,3.67-22.74l-4.68-2.5c2.81,7.22,2.3,16,2.45,23.65,0,1.15,4.63,2.89,4.68,2.5,1.2-10,1.84-20.65,5-30.29l-4.68-2.5C169.5,4.5,168.4,14,168.36,22c0,1.16,4.63,2.88,4.67,2.5l.38-3.14c.17-1.41-4.63-3-4.67-2.7l-.38,3.14,4.68,2.5c0-8,1.14-17.51-1.22-25.28-.23-.73-4.4-3.35-4.68-2.5-3.16,9.64-3.81,20.26-5,30.29l4.68,2.51c-.15-7.64.36-16.43-2.45-23.65-.26-.67-4.39-3.4-4.68-2.51-2.35,7.39-3.06,15.05-3.67,22.74l4.68,2.7c.36-4.78.59-9.56.65-14.36,0-4.47,1-10.93-.94-15-.3-.63-4.14-3.49-4.67-2.5-3.58,6.61-4.36,14.78-5.3,22.14l4.68,2.5C153,12.92,154.47,4,151.83-4.34c-.22-.71-4.25-3.42-4.68-2.51-2.05,4.37-2.69,9.4-3.69,14.09a129.51,129.51,0,0,0-3,16.68l4.68,2.7c.54-7.82,1.68-18.56-1.83-25.78-.28-.59-4.39-3.44-4.68-2.5a223.86,223.86,0,0,0-5.88,26.78l4.68,2.5c-.77-9,.1-19.34-2.8-28-.24-.7-4.34-3.4-4.68-2.5-3.59,9.5-5,19.52-6,29.57l4.68,2.5C127.34,19.82,128,10.29,126,1c-.19-.84-4.51-3.21-4.68-2.5a235.58,235.58,0,0,0-4.74,26.34c-.18,1.41,4.63,3,4.67,2.7Z"
    transform="translate(-0.7 7.03)" style="fill: #4068b2" />
  <path
    d="M173,29.61a109.88,109.88,0,0,1,4.63-30.73L173-3.62c3.59,8.56,2.58,19.16,2.55,28.27,0,1.17,4.64,2.86,4.68,2.5,1-8.67,2-17.3,4.72-25.63L180.26-1c2.31,9.24.84,18.86,2.83,28.16.21.95,4.61,3.05,4.68,2.5C189,20,190.39,10.31,194.63,1.44L190-1.07c3,8.34,2.16,17.26,3.1,25.93.12,1.1,4.64,2.9,4.68,2.5.94-9.86,1.25-20.88,5.67-29.91l-4.52-2.24c2.87,3.77,1.92,11.94,1.93,16.37,0,4.64-.47,9.53,1.12,14,.29.8,4.62,3.13,4.68,2.5.85-8.43,1.34-19.22,6-26.54L208-1c3.26,9.06,2.16,18.83,3.86,28.19.2,1.1,4.68,3.15,4.68,2.3a109.09,109.09,0,0,1,1.28-16.35c.64-4.11,1.07-9.5,3.37-13l-4.67-2.5c2.44,8.67,1.71,17.69,2.54,26.57.11,1.2,4.66,2.8,4.68,2.5A153.36,153.36,0,0,1,227.44-.64l-4.52-2.24c2.48,3,2.42,8.38,2.81,12.06.48,4.5.75,9,1,13.53.07,1.19,4.69,3.08,4.68,2.31a75.86,75.86,0,0,1,1-12.59c.22-1.36-4.62-3.08-4.68-2.7a79.55,79.55,0,0,0-1,13L231.43,25c-.31-5.16-.62-10.32-1.24-15.46-.43-3.57-.49-7.8-2.9-10.67C227-1.5,223-4.24,222.76-3.34A153.36,153.36,0,0,0,219,24l4.68,2.51c-.83-8.88-.09-17.91-2.54-26.58-.22-.76-4.09-3.4-4.68-2.5-2.57,3.92-3,10.25-3.65,14.84a113.16,113.16,0,0,0-1,14.94l4.68,2.3c-1.7-9.35-.6-19.12-3.86-28.18-.26-.72-4.07-3.44-4.67-2.5-4.7,7.32-5.2,18.11-6,26.54l4.68,2.51c-1.79-5-1.07-10.65-1.13-15.87,0-4.49.62-11.25-2.23-15-.38-.49-4.06-3.18-4.53-2.23-4.41,9-4.72,20.05-5.67,29.91l4.68,2.5c-.94-8.67-.13-17.58-3.1-25.92-.24-.69-4.23-3.44-4.68-2.5-4.23,8.87-5.63,18.58-6.85,28.24l4.67,2.51c-2-9.3-.52-18.92-2.83-28.17-.19-.77-4.41-3.32-4.67-2.5-2.73,8.32-3.77,17-4.73,25.63l4.68,2.5c0-9.1,1-19.7-2.55-28.27-.27-.64-4.41-3.4-4.68-2.5a111.19,111.19,0,0,0-4.63,31.12c0,1.19,4.68,3.09,4.68,2.31Z"
    transform="translate(-0.7 7.03)" style="fill: #000" />
</svg>