<svg id="Layer_2" data-name="Layer 2" xmlns="http://www.w3.org/2000/svg" viewBox="0 0 232.38 29.3">
  <path
    d="M5.78,22.56a24.27,24.27,0,0,0,3-9.89,29.12,29.12,0,0,1,2.75-10.2l-5.39,1c1.74,2.66,2.19,6.07,2.91,9.11L11.57,23.3c.26,1.11,2.13,1,2.92.84,1-.21,2.59-.78,2.88-2A135,135,0,0,1,23.65,3l-5.59,1.5c1.45,2.2,1.51,5.16,1.7,7.71.21,3,.26,6,.3,9,0,2.55,5.4,1.31,5.81-.68C27,15,28.15,9.46,31,4.6l-5.61.67a82.68,82.68,0,0,1,3.31,16.49c.1,1.13,2.26,1,2.91.85,1-.2,2.69-.78,2.89-2a110.52,110.52,0,0,1,4.23-16.9L33,4.86c2.32,6,3.18,12.39,4,18.74.09.73,1.24.92,1.79.95a5.52,5.52,0,0,0,2.93-.79c1.4-.78,1.8-2,2.21-3.48l1.26-4.57,2.6-9.38L42,7.44a86.73,86.73,0,0,1,2.24,17.5c0,1.12,2.33.95,2.92.84a3.64,3.64,0,0,0,2.88-2q3.75-9.5,7.33-19.06l-5.8,1.12a66.42,66.42,0,0,1,.95,14c0,2.51,5.53,1.35,5.81-.68C59,13.83,59.73,8.36,62.11,3.47l-5.61.67A51.19,51.19,0,0,1,57.56,17c0,2.5,4.86,1.22,5.61-.23A19.54,19.54,0,0,0,65.5,7.9c0-1.3-1.5-1.47-2.53-1.35s-3.27.78-3.28,2a17.69,17.69,0,0,1-1.94,8l5.62-.23c0-4.62.05-9.26-1.07-13.77-.24-1-1.79-1-2.53-.92-1,.11-2.6.59-3.08,1.58-2.55,5.23-3.45,10.87-4.22,16.58l5.81-.68a70.78,70.78,0,0,0-1-14.83c-.23-1.12-2.16-1-2.92-.84a3.62,3.62,0,0,0-2.88,2Q47.94,15,44.19,24.5L50,23.38A86.54,86.54,0,0,0,47.75,5.89c-.26-1.12-2.14-1-2.92-.84-1.08.21-2.56.77-2.88,2l-2.21,7.94-1.06,3.85-.54,1.92c-.09.32-.17.65-.26,1-.16.56-.34.48.16.2l4.71.16c-.81-6.34-1.68-12.72-4-18.73-.84-2.17-5.24-.56-5.8,1.12a111.4,111.4,0,0,0-4.23,16.9l5.8-1.12a81.53,81.53,0,0,0-3.31-16.5c-.64-2.07-4.85-.6-5.61.67-3.05,5.15-4.36,11-5.54,16.76l5.81-.68c-.05-3.27-.09-6.56-.32-9.83-.21-3-.44-5.92-2.12-8.47-.55-.83-2.34-.59-3.1-.38a3.49,3.49,0,0,0-2.49,1.88,134.61,134.61,0,0,0-6.28,19.2l5.81-1.12L14.76,10.6C14,7.34,13.39,4,11.54,1.2c-.49-.74-2-.59-2.71-.46-.89.18-2.24.62-2.69,1.51a29.82,29.82,0,0,0-3,10.18C2.69,16,2.19,19.23.36,22.34c-.7,1.17.6,1.79,1.6,1.84,1.25.06,3.13-.45,3.82-1.62Z"
    transform="translate(-0.16 2.13)" style="fill: #ecea65" />
  <path
    d="M61.06,22.51q1.86-7.56,4.14-15H60.38L63.71,23c.54,2.54,4.1,2.2,4.82,0Q72,12.56,75.69,2.19H70.87Q72.49,12.59,73.82,23A2.54,2.54,0,0,0,76,25.47a2.5,2.5,0,0,0,2.74-1.79A192.19,192.19,0,0,1,85.3,3.51H80.48c1.91,5.68,2.07,11.63,2.2,17.58.06,2.73,4.29,3.5,4.91.66,1.33-6,2.64-12.15,5.25-17.77H88.52a13.05,13.05,0,0,1,.63,4.9c0,1.8.09,3.61.17,5.41A47.7,47.7,0,0,0,91,25.38c.66,2.27,4.28,2.5,4.82,0a150,150,0,0,1,6.16-21H97.11c2,5.73,1.09,11.85,1.49,17.79.18,2.65,4.3,3.58,4.92.66a137.93,137.93,0,0,1,5.25-18.37H104c1.7,5,.28,10.5,1.89,15.58.7,2.22,4.27,2.53,4.82,0q.9-4.11,1.83-8.21l.9-3.86c.21-.92.28-2.57.94-3.3l-4.18-1.1c2.12,6.82,0,14.13,1.85,21,.76,2.8,4.77,2.11,4.92-.66l.49-9.58c.14-2.66-.16-5.91,1-8.39l-4.57-.6q1.62,7.23,3,14.51c.49,2.56,4.13,2.19,4.82,0a15.82,15.82,0,0,0,.72-5.59c-.17-3.21-5.17-3.23-5,0a11.62,11.62,0,0,1-.54,4.26h4.82q-1.39-7.27-3-14.51c-.45-2-3.67-2.55-4.57-.59-1.45,3.14-1.44,6.53-1.62,9.92L111.92,24l4.91-.67c-1.87-6.88.28-14.16-1.86-21a2.52,2.52,0,0,0-4.17-1.1c-2,2.19-2.26,5.6-2.91,8.39-.7,3.06-1.38,6.11-2,9.18h4.82c-1.6-5.06-.17-10.51-1.89-15.58a2.52,2.52,0,0,0-4.82,0,139.48,139.48,0,0,0-5.26,18.37l4.91.67c-.43-6.39.48-13-1.67-19.12a2.52,2.52,0,0,0-4.82,0,149.7,149.7,0,0,0-6.16,21h4.82a45.9,45.9,0,0,1-1.51-11.18C94.13,9,94.44,5,92.84,1.45a2.52,2.52,0,0,0-4.32,0c-2.8,6.06-4.32,12.49-5.75,19l4.91.67c-.13-6.36-.34-12.83-2.38-18.91a2.52,2.52,0,0,0-4.82,0,193,193,0,0,0-6.57,20.17l4.91.66Q77.43,11.91,75.69.86A2.5,2.5,0,0,0,73.28-1,2.61,2.61,0,0,0,70.87.86q-3.74,10.36-7.16,20.85h4.82L65.2,6.18c-.54-2.51-4.13-2.23-4.82,0q-2.3,7.44-4.14,15c-.76,3.13,4.06,4.46,4.82,1.33Z"
    transform="translate(-0.16 2.13)" style="fill: #71bf4b" />
  <path
    d="M121.3,23A113,113,0,0,1,126,4.73h-4.83c2.07,6.3,1.3,13.09,2.67,19.54.48,2.31,4.45,2.46,4.82,0,1-6.85,2.34-13.8,5.77-19.91h-4.32c1.31,2.46,1.22,5.44,1.44,8.14.26,3.35.61,6.69,1,10A2.54,2.54,0,0,0,134.78,25a2.48,2.48,0,0,0,2.74-1.79c1.53-6.08,3-12.24,5.63-18l-3.93.51a6.31,6.31,0,0,1,.8,2.81c.24,1.43.4,2.88.5,4.33a50.21,50.21,0,0,1-.2,8.84h5c.35-3.63,1.72-7.16,2.79-10.62l1.62-5.23a13.62,13.62,0,0,1,1.92-4.23h-4.32c1.25,2.53,1.34,5.43,1.5,8.19a28.89,28.89,0,0,0,1.53,9.05,2.6,2.6,0,0,0,2.41,1.84,2.51,2.51,0,0,0,2.41-1.84,78.09,78.09,0,0,1,1.93-8.27,16,16,0,0,1,2.72-6H156.3c-.27-.24,0-.31,0,.1s0,.66,0,1c.05.8.09,1.61.11,2.41.06,1.7.07,3.39,0,5.08q-.09,5-.65,9.9h5c.55-4.92,1.17-10,3.33-14.51h-4.32c1.24,2,1.43,4.44,1.65,6.72.28,2.8.38,5.61.46,8.42a2.5,2.5,0,0,0,4.91.67q.93-5.46,2-10.89c.66-3.22,1.23-6.57,2.71-9.53h-4.31A8.56,8.56,0,0,1,168,7.2c.1,1.44.17,2.89.21,4.34.08,2.89.05,5.79,0,8.68s4.41,3.51,4.91.67l.38-2.18a2.57,2.57,0,0,0-1.75-3.07,2.5,2.5,0,0,0-3.07,1.74l-.38,2.18,4.91.66c0-3.21.05-6.43-.06-9.65s-.1-6.35-1.51-9.14a2.51,2.51,0,0,0-4.31,0,40.05,40.05,0,0,0-3.12,10.24Q163,17.34,162.06,23l4.91.66c-.09-3.13-.21-6.27-.56-9.38-.32-2.86-.67-5.79-2.23-8.29-.92-1.47-3.47-1.77-4.32,0-2.56,5.38-3.35,11.18-4,17a2.51,2.51,0,0,0,2.5,2.5,2.56,2.56,0,0,0,2.5-2.5,107.51,107.51,0,0,0,.67-11.35c0-1.85,0-3.71-.14-5.56s-.09-3.79-1.55-5.1a2.51,2.51,0,0,0-3.53,0c-3.77,4.44-4.94,10.88-5.94,16.46h4.82c-1.14-2.88-1.23-5.9-1.42-8.95a24.57,24.57,0,0,0-2.11-9.49c-.91-1.85-3.3-1.37-4.32,0-2.21,3-3,7.16-4,10.66-1.22,3.94-2.57,7.83-3,12a2.51,2.51,0,0,0,2.5,2.5,2.56,2.56,0,0,0,2.5-2.5,50.45,50.45,0,0,0,.08-10.28c-.31-3.2-.55-6.65-2.64-9.24a2.52,2.52,0,0,0-3.93.51,115.93,115.93,0,0,0-6.13,19.17l4.91.67c-.45-3.66-.83-7.32-1.1-11-.25-3.34-.44-6.66-2-9.69a2.53,2.53,0,0,0-4.32,0c-3.65,6.51-5.19,13.81-6.27,21.11h4.82c-1.37-6.45-.59-13.2-2.66-19.54a2.53,2.53,0,0,0-4.83,0,114,114,0,0,0-4.73,18.27,2.58,2.58,0,0,0,1.74,3.08A2.53,2.53,0,0,0,121.3,23Z"
    transform="translate(-0.16 2.13)" style="fill: #4068b2" />
  <path
    d="M173.2,23.9a50.67,50.67,0,0,1,4.29-20.19h-4.32c1.62,2.43,1.83,5.42,2,8.26.23,3.36.21,6.72.19,10.09,0,2.72,4.46,3.51,4.91.66.93-5.83,1.85-11.83,4.47-17.18l-4.57-.6c2.43,6.25.71,13.19,2.83,19.54.72,2.14,4.35,2.6,4.82,0,1.21-6.66,2.62-13.39,6.61-19h-4.32C193,10.69,192,17.18,193,22.87c.4,2.35,4.49,2.42,4.82,0,.51-3.74,1.12-7.47,1.88-11.16a21.88,21.88,0,0,1,3.54-9l-3.42.9c-.13-.07.18.87.24,1.15a24.75,24.75,0,0,1,.4,2.56c.19,1.94.21,3.9.21,5.84,0,3.58-.43,7.57,1.46,10.78,1,1.67,4.26,1.64,4.57-.6a73.9,73.9,0,0,1,2-9.87c.72-2.57,1.39-5.51,3.35-7.44l-3.92-.51c3.15,5.72,1.87,12.81,3.6,19a2.51,2.51,0,0,0,4.91-.67,50,50,0,0,1,1-9.83q.53-2.48,1.27-4.91c.23-.73.48-1.47.74-2.19.14-.41.39-.88.49-1.3s.38-.47,0-.13l-3.42-.9A24.59,24.59,0,0,1,218.25,13c.17,3.14.25,6.26.71,9.38a2.46,2.46,0,0,0,2.74,1.79,2.52,2.52,0,0,0,2.17-2.45,70.43,70.43,0,0,1,3.64-18.29l-3.67,1.49c.64.43.79,1.79.94,2.46.35,1.48.63,3,.86,4.47.45,2.93.69,5.9,1,8.85a2.57,2.57,0,0,0,2.5,2.5,2.53,2.53,0,0,0,2.5-2.5,31.9,31.9,0,0,1,.87-8.2c.76-3.12-4.06-4.46-4.82-1.33a37.35,37.35,0,0,0-1,9.53h5c-.32-3.72-.66-7.44-1.28-11.12-.55-3.24-1-7-3.95-9a2.52,2.52,0,0,0-3.67,1.49,75.87,75.87,0,0,0-3.82,19.62l4.91-.67c-.46-3.09-.39-6.25-.61-9.36A28.9,28.9,0,0,0,221,2a2.49,2.49,0,0,0-3.42-.9c-1.64,1.27-2.22,2.94-2.89,4.86A51.9,51.9,0,0,0,213,11.75a55.59,55.59,0,0,0-1.35,12.06l4.91-.66c-1.87-6.69-.64-13.87-4.11-20.15a2.51,2.51,0,0,0-3.92-.51c-2.4,2.36-3.44,5.58-4.38,8.73A74.8,74.8,0,0,0,201.86,22l4.57-.6c-.84-1.42-.76-3.12-.78-4.73,0-2.11,0-4.22,0-6.33A40.73,40.73,0,0,0,205,4.12c-.34-1.88-.85-3.86-2.67-4.83a2.58,2.58,0,0,0-3.42.9A24.53,24.53,0,0,0,195,10c-.82,3.82-1.45,7.68-2,11.56h4.82c-1.08-6.3-.16-12.77-3.35-18.58a2.53,2.53,0,0,0-4.32,0C185.9,8.9,184.3,16.1,183,23.15h4.82c-2.12-6.33-.38-13.26-2.83-19.54-.7-1.8-3.53-2.72-4.56-.6-2.84,5.8-4,12.06-5,18.38l4.91.67c0-3.69,0-7.39-.26-11.07-.28-3.4-.7-6.9-2.63-9.81-.93-1.4-3.5-1.84-4.32,0a56.72,56.72,0,0,0-5,22.72c0,3.21,5,3.22,5,0Z"
    transform="translate(-0.16 2.13)" style="fill: #000" />
</svg>