<svg xmlns="http://www.w3.org/2000/svg" viewBox="0 0 232 25">
  <defs>
    <style>
      .a,
      .b,
      .c,
      .d {
        fill: none;
        stroke-miterlimit: 10;
        stroke-width: 4px;
      }

      .a {
        stroke: #ecea65;
      }

      .b {
        stroke: #71bf4b;
      }

      .c {
        stroke: #4068b2;
      }

      .d {
        stroke: #231f20;
      }
    </style>
  </defs>
  <rect width="100%" height="100%" />

  <path class="a"
    d="M3.025,20.639C6.962,15.2,5.02,8.764,8.792,3.286c3.36,5.472,3.644,11.683,5.6,17.41A102.992,102.992,0,0,1,20.647,4.115c2.905,4.689,1.775,10.138,2.212,15.1C24,14.377,25.181,9.448,28.194,5.126a61.051,61.051,0,0,1,3.3,14.248A83.741,83.741,0,0,1,35.709,4.779c5.138,13.768,2.826,22.073,8.968,2.226A63.748,63.748,0,0,1,46.91,22.112q3.74-8.2,7.3-16.459a49.913,49.913,0,0,1,.958,12.428c.739-4.742,1.508-9.567,4.013-13.927,1.123,3.757,1.094,7.657,1.058,11.515a13.85,13.85,0,0,0,2.126-7.3" />
  <path class="b"
    d="M58.436,20.114q1.833-6.519,4.125-12.95l3.318,13.405q3.409-9.042,7.139-18,1.675,9.261,3.033,18.557A146.645,146.645,0,0,1,82.594,3.7c2.01,5.055,2.156,10.449,2.285,15.755C86.246,14.07,87.631,8.636,90.364,3.6A9.724,9.724,0,0,1,91.3,8.1c.182,4.864.107,9.805,1.734,14.493a114.1,114.1,0,0,1,6.14-18.116c2.124,5.071,1.128,10.6,1.58,15.937a105.489,105.489,0,0,1,5.235-15.864c1.782,4.3.21,9.125,1.887,13.449q1.521-6.052,3.17-12.084a3.885,3.885,0,0,1,1.131-2.136c2.193,5.84-.089,12.273,1.846,18.172q.34-5.728.682-11.456a11.41,11.41,0,0,1,1.135-5.149q1.619,6.245,3,12.525a9.578,9.578,0,0,0,.628-4.255" />
  <path class="c"
    d="M118.478,20.538A86.1,86.1,0,0,1,123.2,4.757c2.108,5.391,1.24,11.321,2.653,16.88,1.038-6.125,2.468-12.333,6-17.714,1.294,1.991,1.461,4.365,1.647,6.645q.414,5.076,1.151,10.128c1.582-5.447,3.179-10.93,5.86-16.045a5.521,5.521,0,0,1,1.349,2.974,36.88,36.88,0,0,1,.47,12.355,28.825,28.825,0,0,1,1.824-6.8l2.669-7.463a11.959,11.959,0,0,1,2.158-4.173c2.773,4.675.942,10.552,3.27,15.406,1.153-4.586,1.93-9.643,5.277-13.265a1.9,1.9,0,0,1,.731,1.627,76.448,76.448,0,0,1-.448,15.857c.6-4.658,1.287-9.412,3.663-13.623a9.984,9.984,0,0,1,1.673,4.618,73.791,73.791,0,0,1,.766,9.55q1.076-5.448,2.383-10.859a25.659,25.659,0,0,1,2.608-7.289,7.574,7.574,0,0,1,.941,3.482,115.728,115.728,0,0,1,.276,11.662l.379-1.88" />
  <path class="d"
    d="M170.13,21.885A40.384,40.384,0,0,1,174.745,3.36a11.308,11.308,0,0,1,2.116,5.9,82.684,82.684,0,0,1,.426,11.037c.958-5.233,1.946-10.548,4.707-15.356,2.5,5.338.631,11.451,2.821,16.874,1.231-5.892,2.682-11.953,6.836-16.922,3.069,4.675,2.01,10.322,3.087,15.53q.695-4.485,1.713-8.933c.721-3.149,1.616-6.381,3.944-8.988,2.677,1.291,1.932,11.113,2.095,13.96a7.286,7.286,0,0,0,1.1,4.371A55.517,55.517,0,0,1,206.469,9.92a11.028,11.028,0,0,1,3.147-4.992c3.354,5.093,1.974,11.328,3.844,16.885A39.4,39.4,0,0,1,217,5.492a2.73,2.73,0,0,1,1.1-1.4c2.583,4.963,1.579,10.6,2.535,15.921a54.554,54.554,0,0,1,3.721-16.366,4.123,4.123,0,0,1,1.917,2.809,71.034,71.034,0,0,1,2.058,12.684,24.672,24.672,0,0,1,.958-7.658" />
</svg>