<svg xmlns="http://www.w3.org/2000/svg" viewBox="0 0 99.91 81.23">
  <rect x="1.5" y="1.5" width="96.91" height="78.23" rx="10.51" style="fill: #ed2024;stroke: #000;stroke-miterlimit: 10;stroke-width: 3px"/>
  <rect x="3.02" y="25.36" width="93.88" height="38.03" style="fill: #fff"/>
  <text transform="translate(18.09 21.49)" style="font-size: 19.48213768005371px;fill: #fff;font-family: FuturaBT-Bold, Futura Md BT;font-weight: 700">HEL<tspan x="37.03" y="0" style="letter-spacing: -0.017569178591753814em">L</tspan><tspan x="47.06" y="0">O</tspan></text>
  <path d="M9.8,51.82c1.78-3.22,3.8-6.54,6.76-8.82,1.88-1.45,6.64-4.24,7.62-.33s-1.44,7.86-3,11.19L15.72,65.77l4.91.06C22.33,61,27.92,57.71,32.44,56A25.8,25.8,0,0,1,36,54.84c.63-.15,1.26-.25,1.89-.38,1.29-.26-1.16.07-1.14,0s0,.71-.06.83a24.84,24.84,0,0,1-3.34,8c-.46.77,1.4.94,1.78,1,.89.05,2.39.06,3-.68a26.37,26.37,0,0,1,14.58-8.22l-3.79-.59c-.64,1.89-1.32,3.77-2,5.62-.32.82,1.28.93,1.78,1a4.42,4.42,0,0,0,3.06-.67c3.46-3,7.19-6.21,11.75-7.25l-3.79-.59,0,3.4c0,.76-.25,2,.18,2.65s2,.85,2.86.82a6.67,6.67,0,0,0,3.36-1c1.77-1,3.52-2.14,5.34-3.11a28.19,28.19,0,0,1,2.78-1.31c.47-.18,1-.36,1.44-.51s2-.28.52-.23l-1.78-.18.28.07-.65-.34c1,.82,1.22,3.17,1.42,4.41s3.11.73,3.78.59a46.72,46.72,0,0,1,9.86-1c.49,0,2.5-.11,2.47-.9s-2.12-.75-2.52-.75a58.62,58.62,0,0,0-12.38,1.36l3.79.59c-.22-1.39-.47-4.28-1.87-5-1.95-1-4.77-.16-6.7.48a32.79,32.79,0,0,0-5.56,2.54q-1.35.75-2.67,1.56l-1.33.79-.75.45c-.47.25-.51.3-.14.13l3,0-.29-.1.65.34c-.4-.55-.12-2-.13-2.65l0-3.16c0-1.1-3.24-.72-3.78-.59-5.51,1.25-9.82,4.71-14,8.3l4.84.29q1.17-3,2.21-6.07c.32-1-3.47-.65-3.78-.59a30.29,30.29,0,0,0-16.84,9.28l4.83.28a29.41,29.41,0,0,0,2.5-5.14c.43-1.18,1.46-3.19,1-4.46C41,52.39,38,52.71,36.69,52.88a34.49,34.49,0,0,0-5.42,1.2,32.31,32.31,0,0,0-9.46,4.6c-2.67,1.9-5.07,4.15-6.18,7.31-.25.73,4.42,1.14,4.92.06l5.18-11.23c1.51-3.29,3.57-6.82,3.62-10.53a4.55,4.55,0,0,0-1.62-4A8.86,8.86,0,0,0,22.67,39a16.61,16.61,0,0,0-10.28,3.18C9.12,44.61,6.91,48,5,51.54c-.53,1,4.2,1.44,4.84.28Z" transform="translate(-0.04 -9.39)"/>
</svg>
