<svg xmlns="http://www.w3.org/2000/svg" viewBox="0 0 100 78.03">
  <rect y="0.03" width="100" height="78" rx="10.51" style="fill: #ed2024"/>
  <rect y="20.2" width="100" height="48.17" style="fill: #fff"/>
  <text transform="translate(30.37 10.29)" style="font-size: 12px;fill: #fff;font-family: FuturaBT-Bold, Futura Md BT;font-weight: 700">HEL<tspan x="22.81" y="0" style="letter-spacing: -0.017578125em">L</tspan><tspan x="28.99" y="0">O</tspan></text>
  <path d="M7.07,75.09q4.08-19.58,10-38.7c.29-.94-.65-2.23-1.19-2.9-.21-.26-1.58-1.75-1.85-.88Q8.12,51.72,4,71.32c-.21,1,.6,2.17,1.19,2.9.17.21,1.66,1.77,1.84.87Z" transform="translate(0 -10.97)" style="fill: #231f20"/>
  <path d="M13.11,34.23c.73,13-1.9,26.19,2.37,38.75.41,1.23,5.33,1,4.82-.46C16.12,60.2,18.82,47,18.11,34.28c-.08-1.43-5.07-1.37-5-.05Z" transform="translate(0 -10.97)" style="fill: #231f20"/>
  <path d="M23.48,35.32c.89,6.16-1.4,12.28-3,18.15Q18.06,62.68,16.06,72a2.08,2.08,0,0,0,2.06,2.34A2.74,2.74,0,0,0,20.9,72.2q2.05-9.56,4.58-19c1.65-6.15,3.8-12.4,2.86-18.85-.42-2.93-5.26-1.8-4.86,1Z" transform="translate(0 -10.97)" style="fill: #231f20"/>
  <path d="M34.81,33.84a25.94,25.94,0,0,1-1.6,4.92q-1,2.52-1.85,5.09c-1.17,3.4-2.21,6.86-3,10.37a62.13,62.13,0,0,0-1.58,21.3,2.32,2.32,0,0,0,2.36,1.82c.73.06,2.76-.26,2.63-1.42a62.13,62.13,0,0,1,1.57-21.3A104.73,104.73,0,0,1,36.4,44.2c1.15-3.27,2.82-6.53,3.4-10,.35-2.12-4.62-2.6-5-.4Z" transform="translate(0 -10.97)" style="fill: #231f20"/>
  <path d="M35.76,33.14c3.24,5.73,3.51,12.91,3.75,19.34.25,7-.08,14-.44,20.93,0,.86,1.46,1.91,2,2.34.25.18,1.83,1.26,1.87.49.37-7.13.71-14.28.42-21.42-.27-6.48-.64-13.64-3.91-19.42A6.87,6.87,0,0,0,37,33c-.29-.17-1.82-.83-1.28.13Z" transform="translate(0 -10.97)" style="fill: #231f20"/>
  <path d="M28.92,57a32.9,32.9,0,0,0,7.93.41A19.57,19.57,0,0,0,40.59,57,11.72,11.72,0,0,0,45,54.6c.29-.24,1.7-1.44.89-1.8-.33-.14-.94.13-1.21.25a8.25,8.25,0,0,0-1.65,1l-.34.27.18-.14h0c.47-.18.58-.23.32-.15s-.74.12-1.11.14c-1.05.07-2.09.12-3.14.15a28,28,0,0,1-6.27-.42c-1-.2-2.18.68-2.86,1.26-.2.16-1.75,1.62-.9,1.79Z" transform="translate(0 -10.97)" style="fill: #231f20"/>
  <path d="M46.39,39.71c3.55-3,8.44-2.79,12.76-2.14,5.18.79,10.51,2.16,15.65.46.18-.06-1.65-4.65-2.32-4.43-5.14,1.7-10.47.33-15.65-.46-4.32-.65-9.21-.85-12.76,2.14-.58.49,2.24,4.5,2.32,4.43Z" transform="translate(0 -10.97)" style="fill: #231f20"/>
  <path d="M55.51,35.88c1,12.49-1.89,24.79-4.72,36.87-.28,1.19,4.18,3,4.27,2.59,2.86-12.2,5.69-24.61,4.74-37.23-.06-.79-1.82-1.63-2.42-2-.26-.13-1.92-1-1.87-.28Z" transform="translate(0 -10.97)" style="fill: #231f20"/>
  <path d="M77.41,34c.08,4.35.14,8.76-.94,13s-3.38,8.32-5.26,12.32l-2.9,6.17c-.76,1.61-1.37,3.21-.53,4.92,2.24,4.56,8,3.77,12.17,3.54l15.69-.82c1.06-.06-.08-1.9-.32-2.19a3.59,3.59,0,0,0-2.74-1.58l-15.69.82c-1.33.07-2.66.18-4,.16A17.33,17.33,0,0,1,71,70.17c-.31,0-.63-.09-.94-.16.85,1.52,1.24,1.85,1.18,1,.38-1,.6-1.91,1.05-2.86l1.65-3.53,3.32-7a49.25,49.25,0,0,0,2.83-6.8c1.41-4.73,1.29-9.74,1.2-14.62,0-1.41-3.92-4.29-3.88-2.21Z" transform="translate(0 -10.97)" style="fill: #231f20"/>
  <path d="M79.53,37.16l15.55.31c.88,0,1.94-.61,1.42-1.6a3.62,3.62,0,0,0-3.12-1.49l-15.54-.31c-.89,0-2,.61-1.43,1.6a3.67,3.67,0,0,0,3.12,1.49Z" transform="translate(0 -10.97)" style="fill: #231f20"/>
  <path d="M79.45,56.36c4.33-.24,8.68-.31,13-.2.12,0-.28-.84-.23-.72a15.43,15.43,0,0,0-.87-1.53,16.46,16.46,0,0,0-1-1.46c-.12-.15-.34-.51-.55-.52q-6.51-.16-13,.2a16.59,16.59,0,0,0,1.11,2.26c.32.49.64,1,1,1.45.11.14.35.53.55.52Z" transform="translate(0 -10.97)" style="fill: #231f20"/>
  <text transform="translate(31.54 16.55)" style="font-size: 6px;fill: #fff;font-family: FuturaBT-Bold, Futura Md BT;font-weight: 700">MY NAME IS</text>
</svg>
