<svg viewBox="0 0 100 100" xmlns="http://www.w3.org/2000/svg">
    <defs>
        <style>
            .head {
                fill: #fcd63d;
                stroke-width: 7px;
            }

            .s-blk {
                stroke: #000;
            }

            .f-white {
                fill: #fff;
            }

            .s-3 {
                stroke-width: 3px;
            }

            .s-4 {
                stroke-width: 4px;
            }

            .s-5 {
                stroke-width: 5px;
            }

            .tongue {
                fill: #ef579e;
            }

            .teeth {
                stroke: #fff;
                stroke-width: 2px;
            }
        </style>
    </defs>
    <g id="Layer_1" data-name="Layer 1">
        <!-- head -->
        <circle class="head s-blk" cx="50" cy="49" r="45.5" />
        <!-- eyes -->
        <g id="eyes">
            <circle class="s-4 s-blk f-white" cx="30.21" cy="44.33" r="10" />
            <circle cx="31.25" cy="45.83" r="4.45" />
            <circle class="s-5 s-blk f-white" cx="64.75" cy="31.61" r="14.75" />
            <circle cx="60.31" cy="28.42" r="4.45" />
        </g>
        <!-- mouth -->
        <path class="s-3 s-blk"
            d="M55.08,81.71c-4.16,1.24-13.67.23-20.39-3.16a20,20,0,0,1-7.86-6.73,33.5,33.5,0,0,1-3.36-7.36c-.32-1.75-1.12-2.08,1.65-2,4.55.08,16.22,0,25.07-2.22,12.62-3.19,26.13-10,29.51-14,1.76-2.1,1.94,3.5,1.81,7.93a22.19,22.19,0,0,1-2.79,10.72C73.61,73.39,64.22,79,55.08,81.71Z"
            transform="translate(0 1.33)" />
        <!-- tongue -->
        <path class="tongue s-blk s-4"
            d="M35.38,69c.21,3.42.62,9.56.62,9.56,1.42,6.59,5.81,10.51,12.81,10.51h.12c7,0,12.7-5.49,12.35-12.34a31.55,31.55,0,0,0-.78-6.81c-.19-.82-.83-5.42-1.5-5.95Z"
            transform="translate(0 1.33)" />
        <line class="s-blk s-3" x1="48.9" y1="81.22" x2="47.4" y2="70.76" />
        <!-- teeth -->
        <path class="teeth f-white"
            d="M25.47,66.5l2.79,5c.66,1.19,2,1.37,3.35,1.34,13.78-.29,35.56-5.68,46.8-14.68.69-.55,1.42-1,1.42-1.93V50.66A.65.65,0,0,0,79,50c-9.91,6-33.11,17.71-53,15.23C25.43,65.19,25.2,66,25.47,66.5Z"
            transform="translate(0 1.33)" />
    </g>
</svg>