<svg id="visual" preserveAspectRatio="none" viewBox="0 0 900 600" width="900" height="600" xmlns="http://www.w3.org/2000/svg" xmlns:xlink="http://www.w3.org/1999/xlink" version="1.1"><path d="M0 97L75 105C150 113 300 129 450 120C600 111 750 77 825 60L900 43L900 0L825 0C750 0 600 0 450 0C300 0 150 0 75 0L0 0Z" fill="#ffffff"></path><path d="M0 319L75 317C150 315 300 311 450 299C600 287 750 267 825 257L900 247L900 41L825 58C750 75 600 109 450 118C300 127 150 111 75 103L0 95Z" fill="#d7d3f4"></path><path d="M0 385L75 394C150 403 300 421 450 438C600 455 750 471 825 479L900 487L900 245L825 255C750 265 600 285 450 297C300 309 150 313 75 315L0 317Z" fill="#ada9e9"></path><path d="M0 469L75 469C150 469 300 469 450 479C600 489 750 509 825 519L900 529L900 485L825 477C750 469 600 453 450 436C300 419 150 401 75 392L0 383Z" fill="#8081dd"></path><path d="M0 601L75 601C150 601 300 601 450 601C600 601 750 601 825 601L900 601L900 527L825 517C750 507 600 487 450 477C300 467 150 467 75 467L0 467Z" fill="#495bd0"></path></svg>