<svg xmlns="http://www.w3.org/2000/svg" viewBox="0 0 100 100">
  <defs>
    <style>
      .a {
        fill: #000000;
      }
    </style>
  </defs>
  <g>
    <path class="a"
      d="M5.094,65.887,0,57.066H20.948a1.1,1.1,0,1,0,0-2.205h-8.82q-9.922,0-9.923-9.923t9.923-9.922H33.076l-5.094,8.82H12.128a1.1,1.1,0,1,0,0,2.2h8.82q9.923,0,9.923,9.923t-9.923,9.923Z" />
    <path class="a" d="M33.076,35.016H41.9v22.05H57.332l-5.094,8.821H33.076Z" />
    <path class="a" d="M66.152,65.887h-8.82V35.016h8.82Z" />
    <path class="a"
      d="M68.357,35.016h8.821V49.569L97.023,31.135V43.152L90.452,49.26,100,65.887H89.835l-6.02-10.452L68.357,69.768Z" />
  </g>
</svg>