<svg id="visual" viewBox="0 0 900 450" width="900" height="450" xmlns="http://www.w3.org/2000/svg" xmlns:xlink="http://www.w3.org/1999/xlink" version="1.1"><path d="M0 64L13.7 64C27.3 64 54.7 64 82 68.5C109.3 73 136.7 82 163.8 81.3C191 80.7 218 70.3 245.2 63.7C272.3 57 299.7 54 327 57.7C354.3 61.3 381.7 71.7 409 73.8C436.3 76 463.7 70 491 65.5C518.3 61 545.7 58 573 60.3C600.3 62.7 627.7 70.3 654.8 67.3C682 64.3 709 50.7 736.2 44.7C763.3 38.7 790.7 40.3 818 42.7C845.3 45 872.7 48 886.3 49.5L900 51L900 0L886.3 0C872.7 0 845.3 0 818 0C790.7 0 763.3 0 736.2 0C709 0 682 0 654.8 0C627.7 0 600.3 0 573 0C545.7 0 518.3 0 491 0C463.7 0 436.3 0 409 0C381.7 0 354.3 0 327 0C299.7 0 272.3 0 245.2 0C218 0 191 0 163.8 0C136.7 0 109.3 0 82 0C54.7 0 27.3 0 13.7 0L0 0Z" fill="#6198ff"></path><path d="M0 132L13.7 139.5C27.3 147 54.7 162 82 162.7C109.3 163.3 136.7 149.7 163.8 151.2C191 152.7 218 169.3 245.2 164.2C272.3 159 299.7 132 327 120.7C354.3 109.3 381.7 113.7 409 118.8C436.3 124 463.7 130 491 126.3C518.3 122.7 545.7 109.3 573 114.7C600.3 120 627.7 144 654.8 150C682 156 709 144 736.2 135C763.3 126 790.7 120 818 124.5C845.3 129 872.7 144 886.3 151.5L900 159L900 49L886.3 47.5C872.7 46 845.3 43 818 40.7C790.7 38.3 763.3 36.7 736.2 42.7C709 48.7 682 62.3 654.8 65.3C627.7 68.3 600.3 60.7 573 58.3C545.7 56 518.3 59 491 63.5C463.7 68 436.3 74 409 71.8C381.7 69.7 354.3 59.3 327 55.7C299.7 52 272.3 55 245.2 61.7C218 68.3 191 78.7 163.8 79.3C136.7 80 109.3 71 82 66.5C54.7 62 27.3 62 13.7 62L0 62Z" fill="#3c80ff"></path><path d="M0 253L13.7 253C27.3 253 54.7 253 82 263.5C109.3 274 136.7 295 163.8 304.8C191 314.7 218 313.3 245.2 302.2C272.3 291 299.7 270 327 261C354.3 252 381.7 255 409 251.2C436.3 247.3 463.7 236.7 491 232.2C518.3 227.7 545.7 229.3 573 245.2C600.3 261 627.7 291 654.8 295.5C682 300 709 279 736.2 279.7C763.3 280.3 790.7 302.7 818 310.8C845.3 319 872.7 313 886.3 310L900 307L900 157L886.3 149.5C872.7 142 845.3 127 818 122.5C790.7 118 763.3 124 736.2 133C709 142 682 154 654.8 148C627.7 142 600.3 118 573 112.7C545.7 107.3 518.3 120.7 491 124.3C463.7 128 436.3 122 409 116.8C381.7 111.7 354.3 107.3 327 118.7C299.7 130 272.3 157 245.2 162.2C218 167.3 191 150.7 163.8 149.2C136.7 147.7 109.3 161.3 82 160.7C54.7 160 27.3 145 13.7 137.5L0 130Z" fill="#0066ff"></path><path d="M0 379L13.7 385C27.3 391 54.7 403 82 405.3C109.3 407.7 136.7 400.3 163.8 399.7C191 399 218 405 245.2 402C272.3 399 299.7 387 327 381C354.3 375 381.7 375 409 375.7C436.3 376.3 463.7 377.7 491 383.7C518.3 389.7 545.7 400.3 573 401.8C600.3 403.3 627.7 395.7 654.8 391.8C682 388 709 388 736.2 391.8C763.3 395.7 790.7 403.3 818 403.3C845.3 403.3 872.7 395.7 886.3 391.8L900 388L900 305L886.3 308C872.7 311 845.3 317 818 308.8C790.7 300.7 763.3 278.3 736.2 277.7C709 277 682 298 654.8 293.5C627.7 289 600.3 259 573 243.2C545.7 227.3 518.3 225.7 491 230.2C463.7 234.7 436.3 245.3 409 249.2C381.7 253 354.3 250 327 259C299.7 268 272.3 289 245.2 300.2C218 311.3 191 312.7 163.8 302.8C136.7 293 109.3 272 82 261.5C54.7 251 27.3 251 13.7 251L0 251Z" fill="#0059dd"></path><path d="M0 451L13.7 451C27.3 451 54.7 451 82 451C109.3 451 136.7 451 163.8 451C191 451 218 451 245.2 451C272.3 451 299.7 451 327 451C354.3 451 381.7 451 409 451C436.3 451 463.7 451 491 451C518.3 451 545.7 451 573 451C600.3 451 627.7 451 654.8 451C682 451 709 451 736.2 451C763.3 451 790.7 451 818 451C845.3 451 872.7 451 886.3 451L900 451L900 386L886.3 389.8C872.7 393.7 845.3 401.3 818 401.3C790.7 401.3 763.3 393.7 736.2 389.8C709 386 682 386 654.8 389.8C627.7 393.7 600.3 401.3 573 399.8C545.7 398.3 518.3 387.7 491 381.7C463.7 375.7 436.3 374.3 409 373.7C381.7 373 354.3 373 327 379C299.7 385 272.3 397 245.2 400C218 403 191 397 163.8 397.7C136.7 398.3 109.3 405.7 82 403.3C54.7 401 27.3 389 13.7 383L0 377Z" fill="#004cbb"></path></svg>